<svg width="27" height="22" viewBox="0 0 27 22" fill="none" xmlns="http://www.w3.org/2000/svg">
<path d="M7.96875 0.59375C8.10938 0.5 8.25 0.5 8.4375 0.546875L18.7031 3.5L25.4531 0.78125C26.1562 0.5 27 1.01562 27 1.8125V17.5156C27 17.9844 26.7188 18.4062 26.25 18.5469L18.9844 21.4531C18.8438 21.5469 18.7031 21.5469 18.5156 21.5L8.25 18.5469L1.5 21.2656C0.796875 21.5469 0 21.0312 0 20.2344V4.53125C0 4.0625 0.234375 3.64062 0.703125 3.5L7.96875 0.59375ZM1.5 19.6719L7.5 17.2812V2.375L1.5 4.76562V19.6719ZM18 4.85938L9 2.28125V17.1875L18 19.7656V4.85938ZM19.5 19.6719L25.5 17.2812V2.375L19.5 4.76562V19.6719Z" fill="url(#paint0_linear_532_288)"/>
<defs>
<linearGradient id="paint0_linear_532_288" x1="0" y1="-1" x2="30.0506" y2="3.76625" gradientUnits="userSpaceOnUse">
<stop stop-color="#3182CE"/>
<stop offset="0.984375" stop-color="#4BC9FF"/>
</linearGradient>
</defs>
</svg>
