<svg width="54" height="54" viewBox="0 0 24 24" fill="none" xmlns="http://www.w3.org/2000/svg">
<path d="M16.5 12C16.5 14.4844 14.4844 16.5 12 16.5C9.46875 16.5 7.5 14.4844 7.5 12C7.5 9.51562 9.46875 7.5 12 7.5C14.4844 7.5 16.5 9.51562 16.5 12ZM12 9C10.3125 9 9 10.3594 9 12C9 13.6875 10.3125 15 12 15C13.6406 15 15 13.6875 15 12C15 10.3594 13.6406 9 12 9ZM12 0C12.375 0 12.75 0.375 12.75 0.75V3.04688C17.1094 3.42188 20.5781 6.89062 20.9531 11.25H23.25C23.625 11.25 24 11.625 24 12C24 12.4219 23.625 12.75 23.25 12.75H20.9531C20.5781 17.1562 17.1094 20.625 12.75 21V23.25C12.75 23.6719 12.375 24 12 24C11.5781 24 11.25 23.6719 11.25 23.25V21C6.84375 20.625 3.375 17.1562 3 12.75H0.75C0.328125 12.75 0 12.4219 0 12C0 11.625 0.328125 11.25 0.75 11.25H3C3.375 6.89062 6.84375 3.42188 11.25 3.04688V0.75C11.25 0.375 11.5781 0 12 0ZM4.5 12C4.5 16.1719 7.82812 19.5 12 19.5C16.125 19.5 19.5 16.1719 19.5 12C19.5 7.875 16.125 4.5 12 4.5C7.82812 4.5 4.5 7.875 4.5 12Z" fill="#63B3ED"/>
</svg>
