<svg width="22" height="22" viewBox="0 0 22 22" fill="none" xmlns="http://www.w3.org/2000/svg">
<path d="M20.75 0.5C20.3281 0.5 20 0.875 20 1.25V7.34375C18.5 3.6875 14.9375 1.25 11 1.25C6.21875 1.25 2.14062 4.67188 1.34375 9.40625C1.29688 9.82812 1.57812 10.2031 2 10.25C2 10.25 2.04688 10.25 2.09375 10.25C2.46875 10.25 2.79688 10.0156 2.84375 9.64062C3.5 5.65625 6.92188 2.75 11 2.75C14.375 2.75 17.4219 4.85938 18.6406 8H13.25C12.8281 8 12.5 8.375 12.5 8.75C12.5 9.17188 12.8281 9.5 13.25 9.5H20.75C21.125 9.5 21.5 9.17188 21.5 8.75V1.25C21.5 0.875 21.125 0.5 20.75 0.5ZM19.9531 11.7969C19.5312 11.7031 19.1562 11.9844 19.0625 12.4062C18.4531 16.3906 15.0312 19.25 10.9531 19.25C7.53125 19.25 4.48438 17.1875 3.26562 14H8.75C9.125 14 9.5 13.6719 9.5 13.25C9.5 12.875 9.125 12.5 8.75 12.5H1.25C0.828125 12.5 0.5 12.875 0.5 13.25V20.75C0.5 21.1719 0.828125 21.5 1.25 21.5C1.625 21.5 2 21.1719 2 20.75V14.7031C3.45312 18.3594 7.01562 20.75 11 20.75C15.7344 20.75 19.8125 17.375 20.6094 12.6406C20.6562 12.2188 20.375 11.8438 19.9531 11.7969Z" fill="url(#paint0_linear_532_287)"/>
<defs>
<linearGradient id="paint0_linear_532_287" x1="-1" y1="-1" x2="25.8499" y2="2.78542" gradientUnits="userSpaceOnUse">
<stop stop-color="#3182CE"/>
<stop offset="0.984375" stop-color="#4BC9FF"/>
</linearGradient>
</defs>
</svg>
